<svg width="20" height="14" viewBox="0 0 20 14" fill="none" xmlns="http://www.w3.org/2000/svg">
<path d="M7.33362 14.0002V12.0002H9.33362C9.08362 9.73358 8.10445 7.83358 6.39612 6.30024C4.68778 4.76691 2.66695 4.00024 0.333618 4.00024V2.00024C2.55028 2.00024 4.54612 2.57941 6.32112 3.73774C8.09612 4.89608 9.43362 6.41691 10.3336 8.30024C11.0336 6.80024 11.9378 5.53358 13.0461 4.50024C14.1545 3.46691 15.242 2.63358 16.3086 2.00024H12.3336V0.000244141H19.3336V7.00024H17.3336V3.70024C16.1003 4.45024 14.8545 5.50024 13.5961 6.85024C12.3378 8.20024 11.5836 9.91691 11.3336 12.0002H13.3336V14.0002H7.33362Z" fill="#999999"/>
</svg>
