<svg width="18" height="20" viewBox="0 0 18 20" fill="none" xmlns="http://www.w3.org/2000/svg">
<path d="M1.99994 20C1.44994 20 0.979106 19.8042 0.587439 19.4125C0.195772 19.0208 -6.10352e-05 18.55 -6.10352e-05 18V4C-6.10352e-05 3.45 0.195772 2.97917 0.587439 2.5875C0.979106 2.19583 1.44994 2 1.99994 2H2.99994V0H4.99994V2H12.9999V0H14.9999V2H15.9999C16.5499 2 17.0208 2.19583 17.4124 2.5875C17.8041 2.97917 17.9999 3.45 17.9999 4V18C17.9999 18.55 17.8041 19.0208 17.4124 19.4125C17.0208 19.8042 16.5499 20 15.9999 20H1.99994ZM1.99994 18H15.9999V8H1.99994V18ZM1.99994 6H15.9999V4H1.99994V6ZM8.99994 12C8.71661 12 8.47911 11.9042 8.28744 11.7125C8.09577 11.5208 7.99994 11.2833 7.99994 11C7.99994 10.7167 8.09577 10.4792 8.28744 10.2875C8.47911 10.0958 8.71661 10 8.99994 10C9.28327 10 9.52077 10.0958 9.71244 10.2875C9.90411 10.4792 9.99994 10.7167 9.99994 11C9.99994 11.2833 9.90411 11.5208 9.71244 11.7125C9.52077 11.9042 9.28327 12 8.99994 12ZM4.99994 12C4.71661 12 4.47911 11.9042 4.28744 11.7125C4.09577 11.5208 3.99994 11.2833 3.99994 11C3.99994 10.7167 4.09577 10.4792 4.28744 10.2875C4.47911 10.0958 4.71661 10 4.99994 10C5.28327 10 5.52077 10.0958 5.71244 10.2875C5.90411 10.4792 5.99994 10.7167 5.99994 11C5.99994 11.2833 5.90411 11.5208 5.71244 11.7125C5.52077 11.9042 5.28327 12 4.99994 12ZM12.9999 12C12.7166 12 12.4791 11.9042 12.2874 11.7125C12.0958 11.5208 11.9999 11.2833 11.9999 11C11.9999 10.7167 12.0958 10.4792 12.2874 10.2875C12.4791 10.0958 12.7166 10 12.9999 10C13.2833 10 13.5208 10.0958 13.7124 10.2875C13.9041 10.4792 13.9999 10.7167 13.9999 11C13.9999 11.2833 13.9041 11.5208 13.7124 11.7125C13.5208 11.9042 13.2833 12 12.9999 12ZM8.99994 16C8.71661 16 8.47911 15.9042 8.28744 15.7125C8.09577 15.5208 7.99994 15.2833 7.99994 15C7.99994 14.7167 8.09577 14.4792 8.28744 14.2875C8.47911 14.0958 8.71661 14 8.99994 14C9.28327 14 9.52077 14.0958 9.71244 14.2875C9.90411 14.4792 9.99994 14.7167 9.99994 15C9.99994 15.2833 9.90411 15.5208 9.71244 15.7125C9.52077 15.9042 9.28327 16 8.99994 16ZM4.99994 16C4.71661 16 4.47911 15.9042 4.28744 15.7125C4.09577 15.5208 3.99994 15.2833 3.99994 15C3.99994 14.7167 4.09577 14.4792 4.28744 14.2875C4.47911 14.0958 4.71661 14 4.99994 14C5.28327 14 5.52077 14.0958 5.71244 14.2875C5.90411 14.4792 5.99994 14.7167 5.99994 15C5.99994 15.2833 5.90411 15.5208 5.71244 15.7125C5.52077 15.9042 5.28327 16 4.99994 16ZM12.9999 16C12.7166 16 12.4791 15.9042 12.2874 15.7125C12.0958 15.5208 11.9999 15.2833 11.9999 15C11.9999 14.7167 12.0958 14.4792 12.2874 14.2875C12.4791 14.0958 12.7166 14 12.9999 14C13.2833 14 13.5208 14.0958 13.7124 14.2875C13.9041 14.4792 13.9999 14.7167 13.9999 15C13.9999 15.2833 13.9041 15.5208 13.7124 15.7125C13.5208 15.9042 13.2833 16 12.9999 16Z" fill="#999999"/>
</svg>
