<svg width="21" height="18" viewBox="0 0 21 18" fill="none" xmlns="http://www.w3.org/2000/svg">
<path d="M2.66663 18C2.11663 18 1.64579 17.8042 1.25413 17.4125C0.862459 17.0208 0.666626 16.55 0.666626 16V2C0.666626 1.45 0.862459 0.979167 1.25413 0.5875C1.64579 0.195833 2.11663 0 2.66663 0H18.6666C19.2166 0 19.6875 0.195833 20.0791 0.5875C20.4708 0.979167 20.6666 1.45 20.6666 2V16C20.6666 16.55 20.4708 17.0208 20.0791 17.4125C19.6875 17.8042 19.2166 18 18.6666 18H2.66663ZM2.66663 16H18.6666V2H2.66663V16ZM3.66663 14H8.66663V12H3.66663V14ZM13.2166 12L18.1666 7.05L16.7416 5.625L13.2166 9.175L11.7916 7.75L10.3916 9.175L13.2166 12ZM3.66663 10H8.66663V8H3.66663V10ZM3.66663 6H8.66663V4H3.66663V6Z" fill="white"/>
</svg>
